<?xml version="1.0" encoding="UTF-8"?>
<svg width="40" height="40" version="1.1" viewBox="0 96 960 960" fill="#fff" xmlns="http://www.w3.org/2000/svg">
 <path d="m427.79 189.92c24.222-9.1133 48.333-7.7243 72.333 4.167 23.999 11.889 40.777 30.5 50.333 55.833l186.67 508.67c9.9993 25.111 9.277 49.333-2.167 72.666-11.445 23.333-29.945 40-55.5 50l-312.67 113.33c-24.667 8.444-48.944 6.8883-72.833-4.667-23.889-11.555-40.833-30-50.833-55.333l-186.67-505.67c-7.5553-25.555-5.833-50.389 5.167-74.5 11-24.111 29.278-40.944 54.833-50.5zm26.333 103-293.67 108.33 180 490.33 293.67-107.67zm180 491-293.67 107.67z"/>
 <path d="m740.05 408.24v-92.667h-93v-80.333h93v-92.333h79.666v92.333h93.667v80.333h-93.667v92.667z" style="paint-order:stroke markers fill"/>
</svg>