<svg xmlns="http://www.w3.org/2000/svg" height="40" viewBox="0 96 960 960" width="40"><path d="M156.666 924q-43.033 0-73.85-30.817Q52 862.367 52 819.334V320.333q0-44.308 30.817-74.82Q113.633 215 156.666 215h245.001l79 79h322.667q44.308 0 74.82 31.012 30.513 31.012 30.513 74.32h-472l-80-78.999H156.666v503.334l100-357.668h709.001L865.333 824Q848.667 877.667 816 900.833 783.334 924 727.667 924H156.666Zm112.333-104.666h487.668l64.334-248.669H333.333l-64.334 248.669Zm0 0 64.334-248.669-64.334 248.669ZM156.666 399.332v-78.999 78.999Z"/></svg>